<svg width="800" height="450" viewBox="0 0 800 450" fill="none" xmlns="http://www.w3.org/2000/svg">
  <rect width="800" height="450" fill="#020617"/>
  
  <path d="M0 32H800M0 64H800M0 96H800M0 128H800M0 160H800M0 192H800M0 224H800M0 256H800M0 288H800M0 320H800M0 352H800M0 384H800M0 416H800" stroke="#10b981" stroke-opacity="0.05"/>
  <path d="M32 0V450M64 0V450M96 0V450M128 0V450M160 0V450M192 0V450M224 0V450M256 0V450M288 0V450M320 0V450M352 0V450M384 0V450M416 0V450" stroke="#10b981" stroke-opacity="0.05"/>
  
  <rect x="300" y="210" width="200" height="2" fill="#10b981" fill-opacity="0.3">
    <animate attributeName="opacity" values="0.1;0.8;0.1" dur="2s" repeatCount="indefinite" />
  </rect>

  <text x="50%" y="240" dominant-baseline="middle" text-anchor="middle" fill="#10b981" font-family="monospace" font-size="16" font-weight="bold" letter-spacing="2">ENCRYPTED_INTEL</text>
  <text x="50%" y="270" dominant-baseline="middle" text-anchor="middle" fill="#475569" font-family="monospace" font-size="12">STAGING_IN_PROGRESS... 84%</text>
</svg>